<?xml version="1.0" standalone="no"?>
<!DOCTYPE svg PUBLIC "-//W3C//DTD SVG 20010904//EN"
 "http://www.w3.org/TR/2001/REC-SVG-20010904/DTD/svg10.dtd">
<svg version="1.0" xmlns="http://www.w3.org/2000/svg"
 width="700.000000pt" height="700.000000pt" viewBox="0 0 700.000000 700.000000"
 preserveAspectRatio="xMidYMid meet">
<metadata>
Created by potrace 1.11, written by Peter Selinger 2001-2013
</metadata>
<g transform="translate(0.000000,700.000000) scale(0.100000,-0.100000)"
fill="#000000" stroke="none">
<path d="M513 6954 c-15 -14 -70 -64 -120 -111 -51 -47 -108 -99 -126 -117
-19 -17 -82 -75 -141 -129 -75 -70 -104 -103 -98 -113 10 -17 254 -288 264
-292 5 -2 8 -11 8 -20 0 -18 -92 -108 -120 -117 -11 -4 -27 -19 -35 -34 -12
-25 -12 -31 1 -50 8 -11 23 -21 32 -21 22 1 62 34 62 52 0 14 95 118 109 118
4 0 15 -8 25 -18 15 -18 13 -22 -38 -70 -30 -29 -61 -52 -69 -52 -18 0 -43
-29 -50 -58 -4 -17 1 -27 19 -38 22 -15 26 -15 49 0 13 9 31 30 40 46 8 16 34
48 56 71 l41 42 26 -27 27 -26 -47 -45 c-26 -24 -60 -51 -77 -59 -36 -19 -54
-49 -46 -75 13 -42 74 -32 99 16 8 15 35 50 60 76 l45 48 67 -70 c36 -39 74
-79 83 -90 10 -11 62 -68 117 -127 54 -59 107 -116 116 -126 9 -11 61 -67 115
-125 141 -152 135 -138 81 -187 -25 -23 -61 -50 -79 -61 -26 -16 -34 -27 -34
-49 0 -60 76 -61 101 -1 7 19 32 53 55 75 39 39 42 40 60 24 11 -9 19 -21 19
-25 0 -15 -85 -90 -117 -104 -53 -22 -57 -95 -6 -103 24 -4 73 34 73 56 0 9
21 39 46 65 l45 48 19 -23 19 -23 -43 -42 c-24 -24 -56 -47 -70 -53 -46 -17
-60 -81 -21 -96 31 -12 65 6 86 48 20 39 75 98 91 98 4 0 12 -9 18 -20 9 -17
5 -26 -27 -56 -21 -20 -50 -40 -66 -46 -33 -12 -51 -41 -42 -68 16 -52 78 -40
107 20 9 19 30 48 48 65 l31 30 47 -51 c50 -53 208 -225 261 -284 l31 -35 -45
-41 c-24 -23 -58 -47 -74 -54 -33 -13 -47 -50 -31 -80 19 -35 69 -20 95 28 19
36 78 102 91 102 6 0 19 -9 29 -20 18 -20 18 -21 -16 -56 -19 -19 -51 -45 -72
-57 -53 -29 -64 -88 -20 -99 32 -8 61 9 82 49 10 21 33 51 50 67 30 29 31 29
51 11 21 -19 21 -19 -17 -58 -21 -21 -53 -45 -71 -52 -53 -23 -64 -89 -16
-101 28 -7 74 19 74 41 0 15 76 105 89 105 3 0 12 -10 19 -21 12 -19 10 -25
-15 -51 -15 -16 -44 -38 -64 -48 -50 -26 -64 -64 -34 -94 23 -23 67 -3 93 42
11 20 33 49 49 64 l29 28 17 -21 c17 -20 17 -21 -16 -52 -19 -18 -49 -41 -68
-52 -53 -31 -49 -95 5 -95 21 0 64 35 65 53 1 15 33 56 56 71 21 14 24 13 39
-3 15 -16 14 -20 -20 -53 -19 -20 -48 -41 -63 -48 -35 -14 -51 -47 -40 -77 16
-43 80 -24 103 30 7 18 27 44 43 60 l29 27 54 -57 c30 -32 81 -86 113 -121
l60 -63 -43 -44 c-24 -24 -55 -49 -71 -55 -15 -7 -33 -25 -39 -41 -11 -25 -10
-32 4 -48 29 -32 77 -11 100 43 8 17 30 46 49 65 31 29 39 32 52 21 31 -25 14
-53 -70 -115 -52 -39 -64 -55 -59 -79 7 -39 52 -48 84 -16 11 11 20 27 20 35
0 19 68 95 85 95 6 0 20 -9 30 -20 18 -20 18 -21 -16 -56 -19 -19 -49 -42 -67
-51 -39 -19 -56 -46 -48 -79 5 -19 13 -24 36 -24 29 0 70 32 70 55 0 6 18 29
41 50 l40 40 77 -81 c62 -64 238 -254 287 -308 16 -18 228 -249 245 -266 8 -9
56 -60 105 -114 50 -55 95 -104 100 -110 27 -29 151 -163 250 -271 61 -66 139
-151 175 -190 36 -38 70 -74 75 -80 6 -7 56 -61 111 -121 200 -215 227 -253
226 -326 0 -54 -8 -78 -170 -473 -118 -291 -146 -558 -80 -773 75 -246 346
-500 595 -558 289 -67 644 43 897 277 192 177 674 673 791 814 249 299 354
589 311 854 -22 135 -109 285 -241 417 -74 74 -107 99 -176 132 -153 76 -357
96 -577 57 -50 -8 -203 -52 -339 -96 -137 -44 -261 -82 -278 -86 -61 -13 -131
-7 -177 16 -49 23 -187 153 -314 295 -100 111 -101 112 -211 232 -50 55 -100
109 -110 120 -10 12 -63 70 -118 129 -55 59 -111 119 -124 134 -13 14 -49 53
-80 87 -80 86 -235 254 -266 289 -15 17 -48 53 -74 80 -25 28 -93 102 -151
165 -58 63 -133 144 -167 180 -34 36 -71 76 -83 90 -12 14 -45 50 -73 80 -29
30 -129 138 -222 240 -94 102 -174 190 -180 196 -73 79 -189 206 -203 221 -9
12 -55 62 -102 113 -47 51 -92 100 -100 110 -19 22 -204 222 -290 315 -36 38
-69 74 -75 80 -18 21 -200 218 -215 234 -8 9 -46 50 -84 91 -38 41 -92 100
-121 130 -28 30 -105 114 -170 185 -66 72 -142 154 -170 184 -27 29 -54 59
-60 65 -13 15 -356 386 -375 406 -8 9 -34 37 -57 62 -56 62 -57 62 -90 32z
m83 -122 c34 -33 223 -236 264 -282 8 -9 61 -66 117 -127 57 -60 111 -119 120
-130 18 -20 158 -172 265 -287 l56 -61 -115 -110 c-64 -60 -118 -111 -122
-112 -6 -1 -203 232 -210 250 -5 14 31 -9 70 -45 87 -81 177 -158 185 -158 5
0 -4 12 -21 26 -16 14 -48 42 -71 62 -22 20 -77 70 -122 110 l-81 74 19 26
c42 57 22 147 -41 179 -81 42 -192 -34 -183 -125 8 -90 75 -130 170 -103 23 6
35 4 52 -9 12 -10 22 -22 22 -26 0 -4 -12 3 -26 17 -65 59 -13 -7 203 -260 13
-14 23 -28 23 -31 0 -11 -168 -172 -176 -169 -15 7 -144 145 -144 155 0 4 37
-27 82 -71 l82 -80 -64 70 c-64 69 -171 169 -121 112 14 -15 22 -27 18 -27
-10 0 -91 90 -93 103 -1 7 -29 41 -62 76 -34 36 -59 68 -57 72 3 3 -36 41 -85
83 -50 42 -88 81 -85 85 2 5 -6 16 -18 24 -41 27 -316 316 -317 333 0 5 24 32
53 60 30 27 103 95 163 150 169 158 199 184 205 184 4 0 24 -17 45 -38z m317
-615 c57 -37 41 -139 -28 -171 -52 -25 -119 0 -131 50 -25 97 78 174 159 121z
m477 -422 c-47 -47 -90 -83 -97 -81 -7 3 -10 -1 -7 -7 2 -7 -7 -24 -21 -37
-21 -20 -28 -22 -35 -11 -11 19 218 247 233 232 8 -8 -13 -35 -73 -96z m218
-60 c30 -33 96 -103 146 -156 153 -161 308 -328 425 -458 13 -14 44 -48 70
-76 25 -27 87 -95 136 -150 50 -55 92 -102 95 -105 4 -4 180 -196 225 -246 6
-6 57 -62 115 -124 58 -62 110 -118 115 -124 23 -25 240 -261 245 -266 3 -3
52 -57 110 -120 58 -63 128 -140 155 -170 28 -30 79 -86 115 -124 36 -39 70
-75 75 -81 6 -7 59 -64 119 -128 59 -64 116 -126 126 -137 10 -11 65 -71 122
-133 58 -62 129 -139 159 -171 30 -33 79 -87 110 -120 63 -68 71 -77 184 -202
231 -256 325 -324 445 -324 44 0 193 41 435 119 205 67 338 93 475 93 253 -1
428 -89 582 -291 129 -170 164 -331 119 -546 -37 -181 -114 -328 -279 -534
-52 -64 -200 -223 -218 -234 -7 -4 -42 11 -78 32 -91 53 -147 68 -200 53 l-41
-11 -50 52 c-27 29 -59 63 -69 75 l-19 22 79 79 c43 43 101 102 129 130 l49
51 -84 85 c-47 47 -87 85 -90 85 -3 0 -58 -52 -121 -115 -62 -63 -119 -115
-125 -115 -11 0 -51 41 -264 270 -58 62 -120 129 -139 149 -18 20 -77 83 -130
140 -53 57 -113 122 -134 145 -22 23 -82 88 -135 145 -54 58 -119 128 -147
157 -27 29 -72 76 -99 106 -93 100 -271 292 -301 323 -16 18 -57 61 -89 96
-33 35 -92 98 -130 139 -98 105 -297 319 -330 355 -16 17 -81 86 -146 155 -65
69 -130 139 -146 155 -25 28 -201 217 -284 305 -19 20 -81 87 -137 147 -56 60
-117 125 -135 144 -18 20 -82 89 -143 154 -149 160 -194 207 -380 406 -44 46
-138 148 -210 224 -71 77 -161 173 -200 214 -38 41 -79 85 -90 96 -11 12 -78
84 -150 160 -71 76 -130 142 -130 146 0 5 36 45 79 90 l80 82 24 -29 c14 -16
49 -56 80 -89z m-382 -86 c3 -6 -3 -21 -15 -32 -16 -17 -23 -19 -33 -9 -9 9
-7 16 8 31 22 23 30 25 40 10z m116 2 c2 -6 37 -45 78 -88 95 -99 183 -193
340 -363 69 -74 159 -170 200 -215 42 -44 112 -118 155 -165 44 -47 137 -146
207 -220 69 -74 138 -148 153 -165 15 -16 62 -66 104 -110 42 -45 130 -139
196 -209 66 -71 125 -134 130 -140 6 -6 71 -76 145 -155 74 -80 146 -157 160
-171 14 -15 56 -60 94 -101 38 -41 101 -108 140 -149 68 -72 239 -256 391
-419 39 -41 102 -109 141 -151 108 -114 148 -156 239 -255 46 -49 100 -108
122 -131 67 -72 270 -288 303 -324 60 -65 245 -263 270 -290 14 -15 59 -62
100 -106 71 -76 272 -290 340 -363 l31 -34 -20 -20 -20 -21 -33 36 c-18 19
-85 91 -149 159 -64 68 -131 140 -149 159 -27 29 -230 245 -320 340 -192 203
-293 310 -316 335 -23 25 -206 220 -309 330 -16 17 -91 96 -165 175 -74 78
-142 151 -150 160 -9 10 -78 85 -155 166 -77 81 -153 162 -169 178 -15 17 -83
89 -150 160 -66 71 -136 145 -154 165 -19 20 -66 70 -105 111 -40 42 -130 138
-202 215 -71 76 -169 179 -216 229 -47 50 -97 103 -110 117 -33 36 -258 277
-345 369 -40 41 -86 91 -104 110 -18 19 -67 71 -109 116 -42 44 -110 116 -151
160 -227 241 -373 397 -437 464 l-72 75 21 23 c22 23 44 29 50 13z m-162 -58
c0 -13 -33 -43 -47 -43 -8 0 -12 -4 -9 -8 3 -5 -12 -26 -33 -46 -29 -28 -40
-34 -44 -23 -7 19 91 126 116 127 9 0 17 -3 17 -7z m364 -296 c76 -80 147
-157 158 -169 11 -13 54 -59 96 -103 41 -44 114 -121 161 -170 47 -50 145
-153 216 -230 72 -76 162 -173 201 -214 40 -42 91 -96 114 -121 23 -25 100
-106 170 -180 70 -74 142 -151 160 -170 17 -19 91 -98 163 -175 73 -77 166
-175 207 -219 41 -44 109 -116 151 -161 42 -44 103 -109 137 -145 33 -36 80
-85 103 -111 46 -47 273 -289 394 -418 39 -41 107 -114 151 -161 45 -47 92
-97 105 -111 13 -15 80 -86 149 -159 69 -73 140 -149 158 -169 19 -20 91 -96
160 -170 70 -74 138 -146 152 -161 81 -87 202 -215 320 -340 74 -78 139 -149
144 -157 5 -10 2 -21 -8 -32 -16 -15 -21 -12 -74 44 -104 111 -206 220 -337
360 -71 77 -166 177 -210 224 -44 46 -87 92 -95 101 -8 9 -44 48 -80 86 -122
130 -327 349 -351 375 -13 15 -76 82 -140 150 -64 68 -127 136 -140 150 -13
15 -79 84 -146 155 -66 71 -138 147 -158 169 -21 22 -97 102 -168 178 -72 76
-140 148 -150 160 -10 12 -73 80 -140 152 -192 203 -250 265 -313 334 -32 35
-77 83 -99 106 -34 36 -195 206 -306 326 -19 20 -90 95 -158 168 -69 73 -133
142 -144 154 -10 12 -51 56 -90 97 -40 42 -130 138 -202 215 -71 76 -164 175
-206 219 -113 121 -222 238 -239 256 -8 10 -42 45 -74 78 -52 54 -58 63 -46
78 16 18 5 28 304 -289z m-174 93 c117 -125 173 -186 234 -250 39 -42 132
-140 206 -220 74 -79 149 -158 165 -175 17 -17 53 -56 80 -86 28 -30 107 -115
177 -189 69 -74 145 -155 168 -180 23 -25 95 -101 160 -170 64 -69 132 -141
150 -160 18 -19 82 -89 144 -154 61 -65 119 -128 129 -139 9 -11 52 -57 95
-102 68 -72 253 -269 342 -365 18 -19 64 -69 104 -110 106 -113 324 -346 397
-424 35 -38 75 -81 89 -96 133 -140 294 -312 320 -340 32 -34 207 -222 284
-304 55 -59 285 -304 321 -342 17 -17 57 -60 89 -95 33 -35 91 -98 130 -139
128 -136 122 -127 101 -150 -10 -11 -21 -20 -25 -20 -7 0 -125 117 -167 166
-10 12 -71 78 -137 148 -65 69 -127 136 -138 148 -11 13 -50 55 -86 93 -37 39
-96 102 -132 140 -36 39 -101 109 -145 156 -44 47 -132 141 -195 209 -63 68
-126 136 -140 150 -72 77 -176 188 -270 289 -57 62 -120 130 -140 151 -20 21
-83 88 -140 150 -57 62 -120 129 -140 150 -20 21 -83 89 -140 150 -58 62 -118
127 -135 145 -16 17 -79 84 -140 149 -60 65 -126 135 -145 156 -19 20 -59 64
-89 96 -30 32 -107 115 -171 184 -65 69 -133 141 -151 161 -19 20 -88 94 -154
165 -66 70 -147 157 -180 193 -33 36 -92 99 -131 141 -40 41 -86 91 -104 110
-17 19 -55 60 -84 90 -29 30 -110 118 -181 195 -138 149 -212 228 -343 365
l-81 85 20 21 20 21 67 -70 c37 -39 78 -82 92 -97z m15 -131 c33 -35 121 -129
195 -209 74 -80 165 -176 202 -215 36 -38 75 -80 85 -92 11 -12 72 -77 136
-145 64 -68 126 -135 137 -149 12 -13 76 -82 143 -153 67 -71 133 -140 146
-155 27 -30 237 -255 328 -351 34 -36 71 -76 82 -89 11 -13 53 -58 93 -100 69
-72 282 -300 343 -366 68 -74 210 -227 244 -263 148 -157 289 -308 302 -323
18 -21 204 -220 310 -333 90 -96 124 -131 193 -207 32 -35 91 -98 130 -139
131 -140 321 -343 336 -360 8 -9 69 -74 134 -144 66 -70 128 -137 139 -149 10
-12 47 -52 83 -88 l64 -67 -21 -26 c-20 -26 -44 -34 -51 -17 -3 7 -81 94 -238
261 -24 25 -65 70 -93 100 -28 30 -80 87 -117 125 -36 39 -115 123 -175 189
-61 65 -123 133 -140 151 -16 18 -82 88 -145 156 -63 68 -149 160 -190 204
-41 44 -104 112 -140 151 -36 39 -117 126 -180 194 -63 67 -120 128 -125 134
-27 28 -271 292 -280 302 -25 27 -247 265 -306 329 -36 38 -189 203 -339 365
-151 162 -325 350 -389 418 -63 68 -122 132 -131 142 -9 10 -68 74 -131 142
-92 98 -230 247 -394 424 -5 6 -37 40 -70 75 -33 35 -116 125 -185 199 -69 74
-155 166 -192 205 l-67 70 22 23 22 23 85 -88 c47 -49 112 -118 145 -154z
m-215 107 c30 -33 68 -74 84 -91 25 -27 167 -180 240 -259 15 -17 53 -58 85
-91 31 -33 85 -92 120 -130 36 -39 94 -102 130 -140 67 -71 264 -284 356 -384
28 -30 61 -66 75 -81 87 -93 256 -274 269 -289 9 -10 66 -72 127 -137 61 -66
126 -135 144 -154 17 -19 80 -87 139 -150 59 -63 132 -141 162 -174 79 -86 94
-102 210 -227 59 -63 120 -128 135 -145 32 -35 243 -261 259 -278 6 -6 71 -76
145 -156 74 -80 139 -150 145 -156 12 -13 82 -88 185 -199 196 -210 317 -340
339 -364 46 -50 209 -226 248 -267 56 -59 256 -275 268 -289 6 -6 32 -35 60
-63 l49 -52 -47 -48 c-26 -26 -47 -50 -47 -54 0 -3 38 -44 84 -91 l84 -85 52
50 51 51 167 -38 c92 -21 175 -41 184 -44 10 -4 38 -39 62 -79 l45 -73 -133
-132 c-73 -73 -165 -163 -205 -200 -116 -109 -235 -179 -398 -234 -98 -33
-120 -36 -240 -40 -151 -4 -209 6 -310 52 -140 64 -270 177 -357 309 -92 140
-114 224 -111 426 3 185 35 310 138 550 138 322 162 408 133 489 -13 35 -72
129 -96 151 -3 3 -23 25 -44 50 -40 45 -219 241 -266 289 -14 14 -72 77 -130
140 -58 63 -112 122 -120 131 -32 34 -218 236 -241 261 -13 15 -64 71 -114
124 -49 54 -98 107 -108 118 -10 12 -48 53 -84 92 -216 229 -429 458 -455 487
-9 11 -68 75 -130 141 -62 66 -121 129 -131 141 -10 12 -55 59 -100 106 -111
116 -215 229 -254 275 -18 21 -61 68 -95 104 -35 37 -101 109 -148 161 -47 51
-96 106 -110 120 -48 51 -235 253 -251 271 -9 11 -57 63 -106 116 -50 54 -116
127 -147 163 -102 114 -98 137 4 26z m4540 -3891 l65 -65 -120 -120 c-99 -99
-121 -117 -134 -108 -13 10 -14 10 -4 -2 10 -11 9 -17 -4 -32 -9 -10 -21 -18
-27 -17 -6 0 -37 30 -69 67 l-58 67 22 18 c22 18 23 17 63 -20 l40 -38 -37 43
-38 43 113 114 c62 63 115 115 118 115 3 0 35 -29 70 -65z m-290 -291 l61 -66
-21 -23 -22 -23 -63 66 c-60 64 -62 67 -48 89 9 13 19 23 23 23 4 0 36 -30 70
-66z m-57 -53 c32 -33 57 -64 57 -69 0 -4 -12 -19 -26 -33 l-26 -24 -18 23
c-10 12 -22 22 -26 22 -4 0 3 -11 16 -25 l24 -26 -30 -30 -31 -30 -47 49 c-79
82 -82 89 -55 118 12 13 27 24 32 24 5 0 25 -16 44 -35 41 -41 58 -47 22 -7
-52 57 -53 61 -34 82 10 11 23 20 30 20 7 0 37 -27 68 -59z m312 -140 c2 -12
1 -21 -2 -21 -8 0 -83 59 -125 98 -34 32 -35 35 -20 53 16 19 19 18 80 -45 35
-35 65 -74 67 -85z m-115 48 c3 -3 23 -18 45 -35 53 -38 65 -50 65 -63 0 -16
-2 -15 -97 40 -121 71 -119 69 -91 90 22 17 24 17 48 -4 14 -12 27 -24 30 -28z
m-301 -71 l35 -38 -38 -39 -37 -38 -65 65 c-35 35 -64 67 -64 70 0 3 17 23 37
44 l38 38 29 -32 c16 -18 45 -50 65 -70z m324 -7 c48 -29 87 -56 87 -61 0 -9
-113 29 -229 76 l-43 18 27 22 c24 19 31 21 49 10 12 -8 60 -37 109 -65z m309
-13 c100 -52 99 -51 0 -151 l-86 -88 -18 23 c-10 13 -27 38 -38 56 -18 29 -18
32 -2 33 12 0 10 3 -7 10 -13 5 -21 12 -18 15 8 8 77 -18 71 -27 -4 -8 43 -5
51 3 3 2 -25 36 -60 75 l-65 71 27 10 c38 13 78 5 145 -30z m-387 -10 c44 -16
99 -37 123 -46 24 -8 47 -23 53 -34 5 -10 7 -18 5 -18 -3 0 -83 18 -177 40
-95 22 -174 40 -177 40 -3 0 10 14 27 31 22 20 38 28 49 24 9 -4 53 -20 97
-37z m260 -29 c22 -23 33 -39 24 -36 -9 3 -22 1 -30 -4 -11 -7 -11 -9 3 -9 9
0 20 -5 23 -11 4 -5 -10 -3 -30 5 -21 9 -39 16 -40 16 -1 0 -2 11 -2 25 0 21
2 23 13 14 8 -7 17 -9 20 -6 3 3 -3 12 -15 19 -12 7 -21 16 -21 20 0 17 18 6
55 -33z"/>
<path d="M506 6521 c-70 -47 -88 -136 -38 -192 93 -104 271 26 207 151 -30 57
-113 77 -169 41z m130 -32 c61 -57 18 -160 -71 -172 -82 -11 -129 76 -82 155
28 48 111 57 153 17z"/>
<path d="M527 6452 c-22 -24 -21 -55 1 -75 52 -47 115 11 82 74 -14 25 -61 25
-83 1z"/>
<path d="M472 6114 c4 -6 71 -57 150 -114 79 -57 219 -159 311 -228 93 -68
171 -122 173 -120 3 4 -547 413 -609 453 -17 11 -28 15 -25 9z"/>
<path d="M640 5945 c0 -2 53 -48 118 -102 64 -53 153 -127 197 -163 44 -37 87
-70 95 -74 17 -9 24 -15 -106 94 -49 41 -91 77 -94 80 -18 19 -200 170 -205
170 -3 0 -5 -2 -5 -5z"/>
<path d="M780 5775 c13 -14 26 -23 28 -20 6 6 -33 45 -44 45 -4 0 3 -11 16
-25z"/>
<path d="M823 6187 c-12 -5 -24 -20 -27 -33 -18 -69 74 -102 103 -38 21 48
-27 93 -76 71z"/>
<path d="M5903 2330 c-57 -34 -62 -115 -16 -248 13 -41 23 -76 20 -78 -9 -10
-194 84 -224 114 -17 18 -39 54 -48 82 -9 27 -21 53 -27 56 -17 11 -27 -16
-18 -48 28 -97 125 -175 294 -238 57 -22 66 -35 66 -97 0 -45 -15 -78 -59
-131 -54 -66 -66 -91 -46 -98 8 -3 25 -4 38 0 28 7 102 77 123 117 33 65 22
155 -36 293 -21 50 -41 115 -43 144 l-6 53 45 27 c46 28 52 40 32 60 -18 18
-59 15 -95 -8z"/>
<path d="M4397 1087 c-3 -9 15 -24 58 -45 49 -24 69 -41 89 -74 33 -56 87
-208 74 -208 -5 0 -42 14 -81 31 -44 20 -95 34 -132 37 -54 4 -64 2 -88 -19
-32 -28 -48 -75 -36 -107 12 -31 23 -28 61 19 32 40 35 41 80 36 25 -3 84 -25
130 -48 163 -82 237 -96 314 -59 82 40 152 142 108 157 -6 2 -45 -19 -85 -47
-67 -45 -79 -50 -130 -50 -30 0 -62 6 -71 13 -9 6 -24 39 -34 72 -23 84 -58
160 -93 204 -54 68 -151 120 -164 88z"/>
<path d="M5750 891 c0 -6 -8 -8 -17 -4 -14 5 -15 3 -6 -7 7 -8 16 -9 28 -2 12
6 14 11 6 16 -6 4 -11 3 -11 -3z"/>
</g>
</svg>
